<?xml version="1.0" standalone="no"?>
<!DOCTYPE svg PUBLIC "-//W3C//DTD SVG 20010904//EN"
 "http://www.w3.org/TR/2001/REC-SVG-20010904/DTD/svg10.dtd">
<svg version="1.0" xmlns="http://www.w3.org/2000/svg"
 width="36.000000pt" height="65.000000pt" viewBox="0 0 36.000000 65.000000"
 preserveAspectRatio="xMidYMid meet">
<metadata>
Created by potrace 1.15, written by Peter Selinger 2001-2017
</metadata>
<g transform="translate(0.000000,65.000000) scale(0.100000,-0.100000)"
fill="#000000" stroke="none">
<path d="M48 627 c-36 -30 -48 -58 -48 -111 0 -110 140 -164 220 -84 54 53 52
128 -5 185 -29 29 -39 33 -86 33 -41 0 -60 -5 -81 -23z m151 -42 c37 -42 39
-70 8 -116 -20 -30 -28 -34 -74 -37 -46 -3 -53 0 -77 28 -36 44 -35 92 3 131
44 43 98 41 140 -6z"/>
<path d="M142 338 c-18 -18 -15 -65 6 -77 9 -6 12 -11 5 -11 -41 -1 -58 -89
-28 -146 8 -16 15 -46 15 -66 0 -37 1 -38 39 -38 l39 0 6 52 c20 177 20 176
-2 189 -20 12 -20 15 -5 31 26 28 7 72 -32 76 -17 2 -36 -3 -43 -10z"/>
</g>
</svg>
